<?xml version="1.0" standalone="no"?>
<!DOCTYPE svg PUBLIC "-//W3C//DTD SVG 20010904//EN"
 "http://www.w3.org/TR/2001/REC-SVG-20010904/DTD/svg10.dtd">
<svg version="1.0" xmlns="http://www.w3.org/2000/svg"
 width="105.000000pt" height="42.000000pt" viewBox="0 0 105.000000 42.000000"
 preserveAspectRatio="xMidYMid meet">

<g transform="translate(0.000000,42.000000) scale(0.100000,-0.100000)"
fill="#000000" stroke="none">
<path d="M71 293 c-10 -19 -61 -144 -61 -150 0 -2 24 -3 54 -3 l54 0 22 53
c13 28 29 67 37 85 l13 32 -55 0 c-41 0 -56 -4 -64 -17z"/>
<path d="M211 293 c-10 -19 -61 -144 -61 -150 0 -2 24 -3 53 -3 l52 0 35 77
c19 42 37 80 38 85 2 4 -21 8 -52 8 -42 0 -57 -4 -65 -17z"/>
<path d="M505 278 c-7 -18 -23 -55 -34 -81 -26 -60 -26 -57 4 -57 16 0 25 6
25 15 0 21 85 21 94 0 3 -8 16 -15 30 -15 l25 0 -37 85 c-34 77 -39 85 -65 85
-22 0 -31 -7 -42 -32z m49 -66 c-22 -5 -27 3 -19 29 l7 22 14 -24 c11 -20 10
-25 -2 -27z"/>
<path d="M620 290 c0 -16 7 -20 30 -20 l30 0 0 -65 c0 -63 1 -65 25 -65 24 0
25 2 25 65 l0 65 30 0 c23 0 30 4 30 20 0 18 -7 20 -85 20 -78 0 -85 -2 -85
-20z"/>
<path d="M817 292 c-10 -10 -17 -26 -17 -34 0 -20 43 -48 74 -48 14 0 28 -5
32 -11 9 -15 -17 -31 -36 -22 -30 12 -70 15 -70 5 0 -19 44 -42 80 -42 50 0
73 19 68 55 -3 26 -9 32 -50 44 -27 8 -48 20 -48 28 0 15 41 18 56 3 6 -6 18
-8 28 -4 16 6 16 8 0 25 -23 26 -95 26 -117 1z"/>
<path d="M990 298 c0 -4 7 -8 15 -8 8 0 15 4 15 8 0 5 -7 9 -15 9 -8 0 -15 -4
-15 -9z"/>
</g>
</svg>
